<svg version="1.2" preserveAspectRatio="xMidYMid meet" viewBox="648.4584026996625 39.3694016597706 526.4341957255343 537.8399953520001" zoomAndPan="magnify" xmlns:xlink="http://www.w3.org/1999/xlink" xmlns="http://www.w3.org/2000/svg" style="max-height: 500px" width="526.4341957255343" height="537.8399953520001">
  <defs>
    <clipPath id="fb5acedb1d">
      <path d="M 721 76 L 1104 76 L 1104 557.367188 L 721 557.367188 Z M 721 76"/>
    </clipPath>
    <clipPath id="c35384b746">
      <path d="M 331.222656 709 L 364.972656 709 L 364.972656 732.941406 L 331.222656 732.941406 Z M 331.222656 709"/>
    </clipPath>
  </defs>
  <g id="65148c7247">
    <g clip-path="url(#fb5acedb1d)" clip-rule="nonzero">
      <path d="M 1100.863281 512.660156 C 1094.660156 501.777344 1080.753906 497.941406 1069.847656 504.148438 C 1058.011719 486.058594 1032.898438 475.3125 1028.128906 473.410156 C 1025.195312 469.941406 1021.828125 466.402344 1018.058594 462.664062 C 1017.925781 462.53125 1017.792969 462.398438 1017.660156 462.261719 C 1004.085938 448.914062 1004.953125 434.128906 1006.488281 426.988281 C 1006.621094 426.320312 1006.789062 425.683594 1006.921875 425.152344 C 1008.488281 425.152344 1010.054688 424.75 1011.457031 423.949219 L 1033.765625 411.234375 C 1034.867188 410.597656 1035.765625 409.796875 1036.566406 408.863281 C 1036.601562 408.832031 1036.632812 408.796875 1036.632812 408.765625 C 1037.632812 407.5625 1038.402344 406.195312 1038.835938 404.625 C 1039.601562 401.820312 1039.234375 398.886719 1037.800781 396.382812 L 939.460938 223.800781 L 1007.089844 105.15625 C 1009.824219 100.351562 1008.15625 94.175781 1003.320312 91.4375 L 981.042969 78.722656 C 976.242188 75.984375 970.074219 77.65625 967.339844 82.460938 L 913.113281 177.578125 L 858.492188 81.726562 C 857.15625 79.390625 854.988281 77.722656 852.421875 77.019531 C 849.820312 76.320312 847.121094 76.652344 844.785156 77.988281 L 822.507812 90.703125 C 817.707031 93.441406 816.007812 99.617188 818.742188 104.421875 L 871.628906 197.234375 L 871.996094 197.871094 L 886.769531 223.800781 L 788.027344 397.082031 C 785.058594 402.289062 786.894531 408.929688 792.097656 411.902344 L 814.40625 424.617188 C 815.773438 425.382812 817.238281 425.75 818.742188 425.785156 C 820.339844 431.859375 822.84375 448.414062 808.035156 462.996094 C 804.066406 466.902344 800.601562 470.574219 797.566406 474.144531 C 792.796875 476.046875 767.6875 486.792969 755.847656 504.882812 C 750.578125 501.878906 744.441406 501.113281 738.605469 502.714844 C 732.738281 504.316406 727.867188 508.121094 724.832031 513.394531 C 718.632812 524.308594 722.433594 538.222656 733.335938 544.464844 C 736.804688 546.46875 740.675781 547.46875 744.574219 547.46875 C 746.578125 547.46875 748.609375 547.203125 750.613281 546.667969 C 756.480469 545.066406 761.347656 541.261719 764.382812 535.988281 C 767.386719 530.714844 768.1875 524.574219 766.550781 518.699219 C 765.550781 514.996094 763.652344 511.691406 761.050781 508.988281 C 767.886719 498.207031 780.558594 489.996094 789.761719 485.125 C 784.757812 494.070312 783.425781 502.945312 786.726562 513.460938 C 782.226562 515.328125 778.257812 518.632812 775.6875 523.171875 C 772.6875 528.445312 771.886719 534.585938 773.519531 540.460938 C 775.121094 546.332031 778.921875 551.207031 784.191406 554.242188 C 787.660156 556.246094 791.527344 557.246094 795.429688 557.246094 C 797.433594 557.246094 799.464844 556.980469 801.464844 556.445312 C 807.335938 554.84375 812.203125 551.039062 815.238281 545.765625 C 818.242188 540.492188 819.039062 534.351562 817.40625 528.476562 C 815.804688 522.605469 812.003906 517.730469 806.734375 514.695312 C 802.46875 512.257812 797.699219 511.390625 793.164062 511.859375 C 788.027344 495.972656 795.832031 484.324219 812.671875 467.738281 C 830.378906 450.316406 827.011719 430.65625 824.976562 423.582031 C 825.777344 422.914062 826.476562 422.148438 827.011719 421.210938 L 842.785156 393.546875 C 842.882812 393.378906 842.984375 393.210938 843.050781 393.078125 C 843.050781 393.078125 843.050781 393.042969 843.050781 393.042969 L 913.179688 269.992188 L 998.953125 420.476562 C 999.453125 421.347656 1000.117188 422.113281 1000.820312 422.746094 C 998.816406 429.757812 995.351562 449.480469 1013.125 466.9375 C 1016.824219 470.605469 1020.09375 474.011719 1022.894531 477.28125 C 1032.265625 488.230469 1036.199219 497.605469 1033.234375 509.085938 C 1033.066406 509.722656 1032.867188 510.390625 1032.664062 511.058594 C 1027.964844 510.554688 1023.261719 511.523438 1019.09375 513.894531 C 1013.824219 516.898438 1010.023438 521.804688 1008.421875 527.675781 C 1006.820312 533.550781 1007.589844 539.691406 1010.589844 544.964844 C 1013.589844 550.238281 1018.492188 554.042969 1024.363281 555.644531 C 1026.363281 556.179688 1028.398438 556.445312 1030.398438 556.445312 C 1034.300781 556.445312 1038.167969 555.445312 1041.636719 553.441406 C 1052.542969 547.234375 1056.34375 533.285156 1050.140625 522.371094 C 1047.605469 517.933594 1043.738281 514.5625 1039.101562 512.625 C 1042.402344 502.144531 1041.070312 493.234375 1036.066406 484.324219 C 1037.234375 484.957031 1038.46875 485.625 1039.734375 486.359375 C 1046.207031 490.0625 1053.574219 495.136719 1059.445312 501.34375 C 1061.445312 503.480469 1063.246094 505.75 1064.78125 508.152344 C 1062.179688 510.855469 1060.3125 514.160156 1059.277344 517.867188 C 1057.675781 523.738281 1058.445312 529.878906 1061.445312 535.152344 C 1064.445312 540.425781 1069.347656 544.230469 1075.21875 545.832031 C 1077.21875 546.367188 1079.253906 546.632812 1081.253906 546.632812 C 1085.15625 546.632812 1089.023438 545.632812 1092.492188 543.628906 C 1103.261719 537.488281 1107.066406 523.574219 1100.863281 512.660156 Z M 758.582031 532.75 C 756.449219 536.523438 752.980469 539.191406 748.8125 540.359375 C 744.640625 541.496094 740.273438 540.960938 736.539062 538.792969 C 728.800781 534.386719 726.101562 524.472656 730.503906 516.699219 C 732.636719 512.925781 736.105469 510.257812 740.273438 509.089844 C 741.707031 508.6875 743.140625 508.519531 744.574219 508.519531 C 747.34375 508.519531 750.078125 509.253906 752.578125 510.65625 C 756.3125 512.792969 759.015625 516.261719 760.183594 520.433594 C 761.28125 524.605469 760.75 528.980469 758.582031 532.75 Z M 795.398438 518.265625 C 798.097656 518.265625 800.867188 518.96875 803.402344 520.402344 C 807.136719 522.539062 809.835938 526.007812 811.003906 530.179688 C 812.136719 534.351562 811.605469 538.722656 809.4375 542.460938 C 807.300781 546.234375 803.835938 548.902344 799.664062 550.070312 C 795.496094 551.207031 791.128906 550.671875 787.394531 548.503906 C 783.660156 546.367188 780.957031 542.894531 779.789062 538.722656 C 778.625 534.550781 779.191406 530.179688 781.359375 526.441406 C 784.292969 521.203125 789.796875 518.265625 795.398438 518.265625 Z M 948.761719 253.40625 C 947.828125 253.539062 946.929688 253.640625 946.027344 253.738281 C 923.953125 255.808594 911.546875 247.566406 906.210938 242.59375 C 904.3125 240.824219 903.308594 239.488281 903.109375 239.15625 L 890.4375 216.925781 C 896.972656 220.363281 905.945312 223.203125 917.816406 223.203125 C 921.851562 223.203125 926.21875 222.835938 930.921875 222.101562 Z M 876.066406 191.730469 L 846.152344 139.230469 L 874.464844 123.078125 L 904.378906 175.574219 Z M 921.417969 176.277344 L 951.332031 123.777344 L 979.644531 139.933594 L 949.730469 192.464844 Z M 973.039062 85.730469 C 974.007812 84.0625 976.140625 83.496094 977.777344 84.429688 L 1000.050781 97.144531 C 1001.71875 98.082031 1002.285156 100.214844 1001.351562 101.886719 L 982.910156 134.257812 L 954.597656 118.105469 Z M 918.183594 182.015625 L 946.496094 198.171875 L 944.09375 202.375 C 943.660156 202.976562 940.125 207.714844 932.554688 211.71875 L 916.882812 184.21875 Z M 927.386719 215.925781 C 926.488281 216.058594 925.554688 216.160156 924.652344 216.257812 C 902.578125 218.328125 890.171875 210.085938 884.835938 205.113281 C 882.933594 203.34375 881.96875 202.007812 881.734375 201.675781 L 879.332031 197.46875 L 907.644531 181.316406 Z M 825.742188 96.410156 L 848.019531 83.695312 C 848.554688 83.394531 849.152344 83.226562 849.722656 83.226562 C 850.019531 83.226562 850.320312 83.261719 850.65625 83.363281 C 851.554688 83.59375 852.289062 84.195312 852.753906 84.996094 L 871.195312 117.371094 L 842.882812 133.523438 L 824.441406 101.152344 C 823.507812 99.480469 824.109375 97.378906 825.742188 96.410156 Z M 890.570312 230.445312 L 903.144531 252.503906 C 896.441406 254.539062 887.835938 255.542969 877.066406 254.171875 Z M 821.242188 417.941406 C 820.910156 418.507812 820.375 418.910156 819.808594 419.109375 C 819.773438 419.109375 819.773438 419.109375 819.742188 419.109375 C 819.707031 419.109375 819.675781 419.175781 819.640625 419.175781 C 818.972656 419.34375 818.273438 419.277344 817.640625 418.941406 L 804.167969 411.265625 C 814.539062 410.832031 822.609375 408.195312 828.613281 405.058594 Z M 837.148438 390.007812 C 835.480469 392.242188 822.941406 407.328125 793.664062 404.324219 C 793.0625 403.089844 792.996094 401.621094 793.695312 400.355469 L 809.402344 372.785156 C 814.105469 373.519531 818.507812 373.886719 822.542969 373.886719 C 834.382812 373.886719 843.351562 371.015625 849.921875 367.613281 Z M 858.625 352.328125 C 857.859375 353.429688 845.019531 370.71875 812.9375 366.613281 L 830.78125 335.273438 C 835.480469 336.007812 839.882812 336.375 843.917969 336.375 C 855.757812 336.375 864.726562 333.503906 871.296875 330.101562 Z M 880 314.847656 C 879.234375 315.949219 866.394531 333.238281 834.3125 329.132812 L 852.15625 297.828125 C 856.855469 298.5625 861.257812 298.929688 865.261719 298.929688 C 877.132812 298.929688 886.070312 296.058594 892.640625 292.652344 Z M 901.375 277.335938 C 900.609375 278.402344 887.804688 295.757812 855.691406 291.621094 L 873.53125 260.28125 C 878.234375 261.015625 882.636719 261.382812 886.671875 261.382812 C 894.472656 261.382812 901.007812 260.113281 906.476562 258.3125 L 909.347656 263.351562 Z M 911.8125 254.40625 C 918.351562 257.84375 927.320312 260.679688 939.191406 260.679688 C 943.226562 260.679688 947.597656 260.3125 952.296875 259.578125 L 970.140625 290.917969 C 969.207031 291.050781 968.304688 291.152344 967.40625 291.253906 C 945.328125 293.320312 932.921875 285.078125 927.585938 280.105469 C 925.6875 278.335938 924.6875 277 924.484375 276.667969 Z M 960.535156 298.195312 C 964.570312 298.195312 968.9375 297.828125 973.640625 297.09375 L 991.480469 328.429688 C 990.546875 328.566406 989.648438 328.664062 988.746094 328.765625 C 966.671875 330.835938 954.265625 322.589844 948.929688 317.617188 C 947.027344 315.847656 946.027344 314.515625 945.796875 314.179688 L 933.125 291.953125 C 939.726562 295.324219 948.664062 298.195312 960.535156 298.195312 Z M 981.910156 335.671875 C 985.945312 335.671875 990.3125 335.304688 995.015625 334.574219 L 1012.859375 365.878906 C 1011.921875 366.011719 1011.023438 366.109375 1010.121094 366.210938 C 988.046875 368.28125 975.640625 360.035156 970.304688 355.0625 C 968.40625 353.296875 967.4375 351.960938 967.203125 351.625 L 954.53125 329.398438 C 961.070312 332.835938 970.039062 335.671875 981.910156 335.671875 Z M 1003.253906 373.1875 C 1007.289062 373.1875 1011.65625 372.820312 1016.359375 372.085938 L 1032.066406 399.652344 C 1032.800781 400.921875 1032.734375 402.390625 1032.132812 403.625 C 1029.863281 403.859375 1027.695312 403.992188 1025.628906 403.992188 C 1007.789062 404.257812 997.21875 397.550781 992.183594 393.011719 C 989.882812 390.941406 988.679688 389.304688 988.515625 389.074219 L 975.875 366.914062 C 982.445312 370.316406 991.414062 373.1875 1003.253906 373.1875 Z M 997.25 404.359375 C 1003.21875 407.496094 1011.257812 410.097656 1021.660156 410.53125 L 1008.1875 418.210938 C 1007.589844 418.574219 1006.855469 418.644531 1006.1875 418.476562 C 1005.519531 418.277344 1004.953125 417.84375 1004.585938 417.242188 Z M 1044.335938 525.675781 C 1048.738281 533.417969 1046.039062 543.332031 1038.300781 547.769531 C 1034.535156 549.90625 1030.199219 550.472656 1026.03125 549.335938 C 1021.863281 548.203125 1018.394531 545.5 1016.257812 541.726562 C 1014.125 537.957031 1013.558594 533.617188 1014.691406 529.445312 C 1015.824219 525.273438 1018.527344 521.804688 1022.292969 519.667969 C 1024.761719 518.265625 1027.496094 517.53125 1030.296875 517.53125 C 1031.730469 517.53125 1033.167969 517.730469 1034.601562 518.097656 C 1038.703125 519.234375 1042.171875 521.902344 1044.335938 525.675781 Z M 1089.125 537.992188 C 1085.386719 540.125 1081.019531 540.695312 1076.851562 539.558594 C 1072.683594 538.425781 1069.214844 535.722656 1067.082031 531.949219 C 1064.945312 528.179688 1064.378906 523.839844 1065.511719 519.667969 C 1066.648438 515.496094 1069.347656 512.023438 1073.117188 509.890625 C 1075.652344 508.453125 1078.386719 507.753906 1081.121094 507.753906 C 1086.753906 507.753906 1092.226562 510.691406 1095.191406 515.929688 C 1099.5625 523.671875 1096.859375 533.585938 1089.125 537.992188 Z M 1089.125 537.992188" style="stroke:none;fill-rule:nonzero;fill:#000000;fill-opacity:1;"/>
    </g>
  </g>
</svg>