<svg version="1.2" preserveAspectRatio="xMidYMid meet" viewBox="565.8487289088864 103.05565110939561 453.54330708661416 440.63999619200007" zoomAndPan="magnify" xmlns:xlink="http://www.w3.org/1999/xlink" xmlns="http://www.w3.org/2000/svg" style="max-height: 500px" width="453.54330708661416" height="440.63999619200007">
  <defs>
    <clipPath id="0587db5fca">
      <path d="M 439.046875 625.078125 L 452.546875 625.078125 L 452.546875 641.578125 L 439.046875 641.578125 Z M 439.046875 625.078125"/>
    </clipPath>
    <clipPath id="c36d8d9605">
      <path d="M 590.453125 168.089844 L 1000.703125 168.089844 L 1000.703125 462 L 590.453125 462 Z M 590.453125 168.089844"/>
    </clipPath>
  </defs>
  <g id="10175738a3">
    <g clip-path="url(#c36d8d9605)" clip-rule="nonzero">
      <path d="M 953.609375 347.792969 C 950.980469 361.792969 948.753906 375.894531 945.570312 389.765625 C 943.625 398.277344 940.226562 406.445312 937.453125 414.75 C 933.746094 425.800781 929.988281 436.835938 926.261719 447.878906 C 925.140625 451.203125 923.515625 453.148438 919.34375 453.121094 C 898.753906 452.976562 878.179688 453.175781 857.59375 453.351562 C 855.050781 453.375 854.269531 452.578125 853.941406 449.988281 C 852.703125 440.058594 851.59375 430.070312 849.492188 420.308594 C 847.363281 410.394531 840.585938 405.289062 830.53125 404.449219 C 820.535156 403.609375 813.109375 407.734375 808.917969 416.722656 C 804.453125 426.300781 803 436.601562 802.023438 446.996094 C 801.839844 448.976562 801.695312 450.972656 801.503906 453.304688 C 800.128906 453.40625 798.929688 453.566406 797.730469 453.570312 C 775.636719 453.6875 753.546875 453.789062 731.457031 453.878906 C 726.257812 453.898438 726.308594 453.867188 726.003906 448.730469 C 724.898438 429.695312 723.769531 410.664062 722.621094 391.632812 C 722.574219 390.914062 722.359375 390.207031 722.140625 389.0625 C 718.867188 390.21875 715.859375 391.289062 712.835938 392.335938 C 711.414062 392.828125 709.988281 393.625 708.546875 393.667969 C 701.589844 393.878906 699.046875 398.148438 697.152344 404.21875 C 691.324219 422.945312 680.523438 438.6875 665.003906 450.460938 C 656.511719 456.902344 646.625 461.898438 635.140625 461.199219 C 628.773438 460.800781 624.171875 457.109375 620.09375 452.75 C 617.289062 449.742188 614.945312 446.304688 612.402344 443.046875 C 610.894531 441.109375 611.414062 440.007812 613.535156 438.660156 C 621.085938 433.863281 627.9375 427.871094 630.53125 419.199219 C 632.90625 411.25 633.480469 402.742188 634.542969 394.453125 C 634.664062 393.492188 633.054688 391.679688 631.898438 391.285156 C 616.851562 386.039062 603.910156 377.3125 591.6875 367.355469 C 591.34375 367.078125 591.125 366.648438 590.460938 365.773438 C 596.269531 367.609375 601.382812 369.625 606.683594 370.804688 C 613.5 372.316406 620.46875 373.160156 627.375 374.28125 C 627.75 374.308594 628.125 374.3125 628.503906 374.292969 C 634.996094 374.558594 635.214844 374.535156 634.507812 367.695312 C 632.820312 351.355469 630.289062 335.074219 629.21875 318.699219 C 627.519531 292.746094 630.40625 267.320312 641.65625 243.445312 C 650.660156 224.371094 664.742188 209.582031 681.421875 197.074219 C 694.503906 187.273438 708.957031 180.191406 724.613281 175.570312 C 733.585938 172.910156 742.726562 171.054688 752.03125 170.003906 C 761.332031 168.949219 770.65625 168.714844 780 169.300781 C 806.796875 170.945312 832.550781 177.101562 857.035156 188.09375 C 900.292969 207.507812 931.855469 237.984375 946.128906 284.269531 C 949.902344 296.5 952.367188 309.074219 952.699219 321.953125 C 953 333.445312 954.816406 344.578125 959.371094 355.246094 C 965.011719 368.453125 973 378.566406 988.664062 379.757812 C 990.851562 379.925781 993.050781 380.8125 995.109375 381.691406 C 998.722656 383.230469 1000.703125 386.464844 1000.277344 390.058594 C 999.816406 393.964844 997.902344 396.84375 993.96875 398.148438 C 990.507812 399.296875 986.769531 398.347656 984.429688 395.523438 C 983.554688 394.464844 982.84375 393.277344 982.074219 392.128906 C 978.011719 385.988281 974.507812 379.570312 968.808594 374.507812 C 961.632812 368.113281 957.832031 359.367188 954.613281 350.445312 C 954.285156 349.507812 953.914062 348.585938 953.609375 347.792969 Z M 666.285156 373.925781 C 673.355469 372.386719 680.1875 370.96875 686.984375 369.414062 C 703.023438 365.738281 714.109375 356.324219 720.800781 341.207031 C 723.230469 335.71875 723.445312 331.402344 720.378906 325.960938 C 715.1875 316.75 714.121094 306.292969 713.34375 295.820312 C 712.101562 279.050781 713.492188 262.527344 716.742188 246.097656 C 717.152344 244.042969 717.398438 242.269531 720.503906 242.980469 C 723.4375 243.65625 723.167969 245.160156 722.851562 247.363281 C 721.621094 256.039062 720.222656 264.714844 719.53125 273.441406 C 719.132812 278.960938 719.332031 284.457031 720.125 289.933594 C 722.105469 303.949219 732.074219 310.0625 744.515625 313.210938 C 751.285156 314.925781 758.101562 314.746094 764.863281 312.300781 C 763.910156 308.902344 762.367188 307.390625 758.65625 307.039062 C 756.441406 306.832031 754.25 303.921875 752.542969 301.824219 C 751.644531 300.71875 751.800781 298.75 751.488281 297.226562 C 743.410156 295.507812 741.539062 290.992188 743.417969 284.136719 C 737.027344 279.582031 736.945312 279.320312 738.359375 271.480469 C 738.46875 270.75 738.316406 270.074219 737.90625 269.457031 C 733.183594 263.207031 733.0625 261.832031 736.90625 255.582031 C 731.667969 250.039062 731.667969 248.070312 736.917969 241.152344 C 733.394531 235.152344 733.914062 232.882812 739.929688 227.910156 C 735.953125 220.296875 739.742188 215.851562 750.425781 216.175781 C 750.152344 219.53125 749.773438 222.867188 749.632812 226.210938 C 749.011719 240.542969 751.773438 253.898438 764.4375 262.382812 C 772.378906 267.707031 781.492188 271.28125 790.089844 275.617188 C 790.238281 275.691406 790.539062 275.472656 790.765625 275.382812 C 791.976562 273.316406 791.214844 271.957031 789.070312 271.515625 C 784.664062 270.605469 783.390625 267.59375 783.121094 263.578125 C 783.054688 262.585938 782.273438 261.175781 781.4375 260.785156 C 777.296875 258.855469 775.832031 255.707031 776.289062 251.320312 C 776.375 250.5 775.992188 249.257812 775.386719 248.804688 C 769.308594 244.25 768.886719 243.230469 770.699219 236.066406 C 764.042969 231.609375 763.347656 228.664062 767.246094 221.425781 C 760.792969 216 760.515625 214.546875 764.503906 206.996094 C 760.683594 202.15625 760.449219 197.808594 764.308594 195.285156 C 767.601562 193.125 771.285156 191.570312 775.046875 189.617188 C 780.949219 200.210938 786.351562 210.710938 793.933594 219.242188 C 798.25 205.691406 802.480469 192.414062 806.789062 178.886719 C 805.980469 178.640625 805.15625 178.453125 804.320312 178.332031 C 795.113281 177.296875 785.921875 175.859375 776.683594 175.386719 C 753.667969 174.214844 731.453125 177.890625 710.296875 187.339844 C 707.746094 188.480469 707.328125 189.683594 707.710938 192.488281 C 709.605469 206.160156 707.65625 219.082031 696.761719 228.691406 C 691.832031 233.046875 685.570312 235.882812 679.65625 239.582031 C 680.292969 242.3125 681.632812 246.019531 681.945312 249.8125 C 682.640625 258.160156 676.167969 264.769531 668.878906 263.390625 C 666.347656 262.910156 663.96875 261.644531 661.585938 260.761719 C 660.597656 264.316406 660.023438 267.96875 658.542969 271.203125 C 657.066406 274.4375 654.925781 277.503906 652.605469 280.25 C 650.03125 283.300781 646.894531 285.875 644.058594 288.714844 C 640.230469 292.550781 636.703125 296.558594 635.476562 302.113281 C 633.074219 313.003906 637.554688 319.675781 648.480469 321.503906 C 650.78125 321.898438 653.15625 322.539062 655.191406 323.632812 C 657.964844 325.121094 659.226562 327.710938 658.484375 330.957031 C 657.757812 334.148438 655.613281 335.832031 652.464844 336.355469 C 651.308594 336.554688 650.140625 336.703125 648.144531 337 C 658.242188 348.160156 662.484375 360.070312 655.789062 374.222656 L 661.320312 374.222656 C 661.140625 371.753906 659.535156 368.730469 663.421875 368.433594 C 666.859375 368.15625 666.203125 371.09375 666.285156 373.925781 Z M 910.378906 415.191406 C 913.269531 411.199219 915.769531 408.085938 917.863281 404.726562 C 919.089844 402.757812 919.824219 402.351562 921.230469 404.398438 C 924.035156 408.472656 926.910156 412.496094 930.152344 417.105469 C 938.804688 390.925781 946.730469 365.234375 946.785156 337.214844 C 944.804688 338.035156 943.429688 338.5625 942.09375 339.164062 C 919 349.539062 895.769531 349.71875 872.433594 340.058594 C 854.503906 332.632812 839.53125 321.003906 826.035156 307.304688 C 824.570312 305.816406 823.460938 303.976562 822.121094 302.214844 C 818.304688 308.652344 815.414062 314.214844 811.890625 319.34375 C 799.417969 337.503906 781.953125 346.960938 760.019531 348.171875 C 757.558594 348.304688 756.242188 349.082031 755.238281 351.414062 C 750.929688 361.429688 745.5625 371.253906 736.789062 377.582031 C 728.824219 383.324219 727.90625 390.070312 728.871094 398.429688 C 729.410156 403.0625 729.578125 407.738281 729.910156 412.398438 L 730.957031 412.679688 C 732.578125 410.5 734.175781 408.324219 735.820312 406.167969 C 736.445312 405.351562 737.191406 404.625 737.875 403.859375 C 738.511719 404.554688 739.199219 405.199219 739.765625 405.945312 C 742.160156 409.097656 744.515625 412.28125 747.089844 415.730469 C 749.75 412.21875 752.058594 409.128906 754.417969 406.078125 C 755.042969 405.269531 755.800781 404.5625 756.5 403.808594 C 757.117188 404.515625 757.777344 405.191406 758.351562 405.9375 C 760.5 408.738281 762.621094 411.558594 765.140625 414.890625 C 767.789062 411.261719 770.109375 408.59375 771.835938 405.585938 C 773.476562 402.71875 774.238281 403.582031 775.648438 405.675781 C 777.855469 408.945312 780.339844 412.027344 783.035156 415.632812 C 785.785156 411.886719 788.117188 408.675781 790.492188 405.492188 C 790.960938 404.859375 791.582031 404.335938 792.132812 403.761719 C 792.792969 404.398438 793.539062 404.964844 794.09375 405.679688 C 796.652344 408.984375 799.160156 412.335938 802.105469 416.214844 C 807.429688 403.902344 816.277344 398.089844 828.964844 398.472656 C 841.421875 398.847656 850.703125 404.125 855.273438 416.820312 C 858.441406 412.191406 861.058594 408.253906 863.789062 404.386719 C 865.136719 402.480469 866.027344 403.332031 867.085938 404.925781 C 869.347656 408.324219 871.839844 411.566406 874.554688 415.320312 C 877.328125 411.523438 879.933594 408.335938 882.078125 404.863281 C 883.59375 402.414062 884.175781 402.742188 885.566406 404.929688 C 887.527344 408.011719 889.921875 410.820312 892.574219 414.351562 C 895.246094 410.589844 897.472656 407.746094 899.386719 404.699219 C 900.726562 402.558594 901.484375 402.703125 902.800781 404.699219 C 905.019531 408 907.449219 411.15625 910.378906 415.191406 Z M 727.742188 338.96875 C 727.039062 340.269531 725.824219 342.296875 724.816406 344.421875 C 718.328125 358.097656 708.492188 367.753906 693.695312 372.488281 C 672.71875 379.199219 651.328125 381.25 629.496094 379.832031 C 625.953125 379.601562 622.417969 379.253906 618.878906 378.960938 C 619.472656 380.019531 620.207031 380.679688 621.058594 380.988281 C 629.164062 383.925781 637.125 387.480469 645.445312 389.582031 C 672.714844 396.46875 699.417969 395.445312 724.371094 381.078125 C 737.089844 373.753906 744.9375 362.039062 750.558594 349.316406 Z M 645.761719 410.5625 C 645.195312 419.714844 639.273438 424.90625 632.710938 430.203125 C 628.15625 433.878906 625.015625 439.308594 620.773438 444.523438 C 622.800781 446.441406 625.953125 450.035156 629.699219 452.839844 C 636.457031 457.90625 643.492188 454.285156 649.667969 451.703125 C 665.160156 445.21875 676.078125 433.339844 683.980469 418.800781 C 687.585938 412.167969 690.175781 404.984375 693.433594 397.582031 C 691.824219 397.5 691.109375 397.410156 690.40625 397.441406 C 683.792969 397.714844 677.175781 397.96875 670.570312 398.3125 C 664.472656 398.625 657.734375 395.488281 652.695312 401.582031 C 652.617188 401.675781 652.554688 401.78125 652.484375 401.878906 C 653.433594 408.40625 652.019531 410.414062 645.761719 410.5625 Z M 746.699219 243.578125 C 744.238281 264.925781 748.679688 275.5 755.980469 287.550781 C 765.035156 302.511719 779.144531 310.183594 796.828125 313.148438 C 788.867188 307.195312 781.019531 301.910156 773.863281 295.808594 C 766.707031 289.707031 760.453125 282.554688 756.78125 273.5 C 767.167969 281.695312 779.15625 286.816406 790.851562 292.488281 C 796.832031 295.386719 801.632812 299.8125 804.117188 306.277344 C 804.625 307.605469 805.132812 308.933594 805.640625 310.261719 C 806.90625 299.554688 802.851562 290.707031 794.777344 284.597656 C 787.765625 279.292969 779.632812 275.375 771.722656 271.375 C 763.605469 267.277344 756.226562 262.496094 751.628906 254.425781 C 749.804688 251.21875 748.542969 247.691406 746.699219 243.578125 Z M 720.550781 303.871094 C 721.925781 315.644531 725.160156 325.960938 733.617188 333.964844 C 739.230469 339.269531 746.054688 341.800781 753.757812 342.023438 C 768.605469 342.460938 782.140625 338.855469 793.847656 329.175781 C 775.089844 334.414062 756.476562 338.933594 739.871094 323.671875 C 746.035156 326.210938 752.503906 327.121094 758.960938 325.800781 C 770.296875 323.453125 781.53125 320.589844 792.816406 317.949219 C 792.773438 317.816406 792.765625 317.484375 792.617188 317.386719 C 792.082031 317.066406 791.523438 316.78125 790.949219 316.53125 C 782.488281 312.675781 773.871094 314.402344 765.484375 316.398438 C 748.4375 320.457031 733.878906 316.324219 720.550781 303.871094 Z M 657.730469 250.199219 C 660.652344 252.625 662.808594 255.070312 665.511719 256.449219 C 667.726562 257.578125 670.914062 258.386719 673.09375 257.636719 C 676.273438 256.554688 677.589844 252.980469 676.75 249.773438 C 675.628906 245.488281 673.679688 241.414062 672 237.300781 C 671.523438 236.144531 670.710938 235.125 669.746094 233.539062 C 681.503906 234.085938 690.410156 229.839844 696.898438 221.179688 C 703.445312 212.445312 704.519531 202.507812 702.246094 191.761719 C 701.300781 192.03125 700.804688 192.082031 700.398438 192.296875 C 685.476562 200.230469 672.9375 211.085938 661.851562 223.738281 C 660.46875 225.324219 660.722656 226.441406 661.90625 227.964844 C 664.246094 230.964844 663.6875 234.054688 661.6875 237.023438 C 659.65625 240.027344 656.695312 240.945312 653.457031 239.804688 C 651.09375 238.972656 650.238281 239.933594 649.472656 241.742188 C 647.039062 247.507812 644.382812 253.191406 642.230469 259.058594 C 640.683594 263.277344 639.8125 267.742188 638.414062 272.929688 C 650.203125 268.980469 654.953125 260.464844 657.730469 250.199219 Z M 818.503906 287.832031 C 818.503906 281.617188 819.34375 275.261719 818.339844 269.214844 C 815.941406 254.742188 808.230469 242.84375 797.886719 232.746094 C 790.015625 225.0625 783.257812 216.605469 777.71875 207.128906 C 776.515625 205.066406 775.195312 203.074219 773.609375 200.535156 C 773.394531 201.679688 773.234375 202.050781 773.269531 202.398438 C 774.609375 216.578125 777.183594 230.515625 783.871094 243.21875 C 788.765625 252.523438 794.5625 261.335938 799.75 270.492188 C 802.628906 275.582031 805.050781 280.925781 807.671875 286.15625 L 808.757812 285.757812 C 806.070312 277.609375 803.730469 269.324219 800.601562 261.34375 C 797.5 253.425781 793.605469 245.828125 790.058594 238.085938 C 802.03125 253.261719 814.558594 268.070312 818.503906 287.832031 Z M 641.332031 375.363281 C 643.492188 375.363281 644.84375 375.347656 646.191406 375.363281 C 652.039062 375.441406 653.171875 374.84375 654.835938 369.199219 C 657.082031 361.574219 657.054688 354.046875 652.226562 347.234375 C 648.960938 342.636719 645.46875 338.203125 642.207031 333.601562 C 641.539062 332.660156 641.433594 331.316406 641.070312 330.15625 C 642.117188 330.578125 643.152344 331.027344 644.210938 331.417969 C 646.269531 332.171875 648.289062 333.242188 650.414062 333.535156 C 652.84375 333.867188 655.363281 333.367188 655.71875 330.167969 C 656.058594 327.132812 654.175781 325.476562 651.601562 324.667969 C 646.320312 323.015625 640.984375 321.550781 635.761719 320.035156 C 635.710938 321.027344 635.71875 322.015625 635.777344 323.007812 C 636.457031 330.457031 636.175781 338.101562 640.417969 344.8125 C 642.289062 347.785156 644.164062 350.777344 645.722656 353.921875 C 649.796875 362.113281 648.9375 367.027344 642.65625 373.285156 C 642.328125 373.613281 642.148438 374.082031 641.332031 375.363281 Z M 939.503906 304.972656 L 937.976562 305.402344 C 926.460938 293.453125 920.476562 278.675781 916.664062 262.398438 C 915.65625 263.9375 915.027344 265.511719 915.191406 267 C 917.132812 284.898438 924.253906 300.484375 936.425781 313.742188 C 939.425781 317.003906 942.550781 320.148438 945.621094 323.347656 L 946.710938 322.613281 C 945.027344 298.480469 939.007812 275.625 926.257812 254.722656 C 923.199219 256.292969 923.058594 257.925781 924.796875 260.550781 C 932.03125 271.472656 938.496094 282.777344 939.464844 296.28125 C 939.671875 299.160156 939.496094 302.074219 939.496094 304.972656 Z M 899.332031 275.316406 L 897.949219 275.339844 C 897.320312 280.40625 896.308594 285.460938 896.144531 290.539062 C 895.652344 305.804688 900.535156 319.890625 906.066406 333.820312 C 907.171875 336.609375 908.605469 337.660156 911.667969 337.3125 C 914.816406 336.949219 914.636719 334.667969 914.976562 332.707031 C 917.601562 317.476562 918.117188 302.234375 914.199219 287.148438 C 912.859375 281.976562 910.675781 277.023438 908.875 271.972656 L 907.527344 272.339844 C 912.414062 288.703125 915.011719 305.113281 909.355469 322.367188 C 908.261719 321.4375 907.640625 321.140625 907.390625 320.65625 C 906.421875 318.765625 905.410156 316.875 904.707031 314.875 C 900.285156 302.078125 898.132812 288.9375 899.332031 275.316406 Z M 855.332031 220.628906 L 855.777344 219.414062 C 854.171875 218.742188 852.621094 217.867188 850.957031 217.433594 C 835.296875 213.332031 820.664062 217.167969 806.382812 223.402344 C 805.46875 223.796875 804.601562 225.140625 804.386719 226.175781 C 803.738281 229.261719 811.089844 240.328125 814.125 241.078125 C 814.742188 241.214844 815.367188 241.242188 815.996094 241.171875 C 823.460938 240.417969 830.992188 240.042969 838.367188 238.753906 C 844.359375 237.707031 849.949219 235.148438 854.507812 230.746094 C 852.675781 230.78125 850.90625 231.140625 849.203125 231.828125 C 838.199219 236.265625 827.113281 237.308594 815.941406 232.554688 C 814.355469 231.847656 813.113281 230.75 812.21875 229.261719 C 811.953125 228.792969 813.605469 226.65625 814.765625 226.054688 C 823.1875 221.714844 831.902344 218.203125 841.664062 219.007812 C 846.230469 219.386719 850.773438 220.078125 855.332031 220.628906 Z M 861.042969 198.808594 L 861.5625 197.832031 C 860.886719 197.277344 860.28125 196.585938 859.523438 196.183594 C 847.066406 189.566406 833.683594 185.429688 820.136719 181.808594 C 819.242188 181.570312 817.378906 182.441406 816.957031 183.289062 C 810.746094 195.800781 809.460938 193.398438 820.46875 201.75 C 830.066406 209.035156 841.074219 211.839844 853.046875 210.441406 C 854.984375 210.214844 856.820312 209.113281 858.703125 208.414062 L 858.308594 207.074219 C 852.75 206.636719 847.179688 206.332031 841.640625 205.738281 C 833.226562 204.835938 826.289062 200.632812 819.878906 195.441406 C 817.6875 193.660156 818.457031 192.21875 820.820312 191.390625 C 821.628906 191.109375 822.535156 191.046875 823.40625 190.996094 C 835.34375 190.261719 846.941406 191.246094 857.515625 197.617188 C 858.546875 198.25 859.863281 198.425781 861.042969 198.808594 Z M 865.53125 199.460938 C 865.121094 200.320312 864.574219 201.058594 864.40625 201.871094 C 862.625 210.542969 860.222656 219.15625 859.3125 227.921875 C 857.863281 241.882812 865.273438 252.398438 876.082031 259.527344 C 891.273438 269.546875 909.65625 266.085938 922.078125 252.652344 C 924.003906 250.570312 923.53125 249.257812 921.390625 247.664062 C 919.476562 249.449219 917.582031 251.230469 915.671875 253.011719 C 898.871094 268.554688 869.917969 259.742188 863.726562 236.722656 C 860.660156 225.320312 863.824219 214.347656 867.925781 203.757812 C 869.058594 200.816406 868.335938 199.9375 865.53125 199.460938 Z M 875.984375 316.125 C 872.492188 301.945312 874.550781 288.277344 878.628906 274.667969 C 877.984375 275.109375 877.488281 275.683594 877.144531 276.386719 C 870.898438 287.988281 870.082031 300.539062 871.003906 313.300781 C 871.367188 318.28125 872.296875 323.21875 873.089844 328.148438 C 873.207031 328.894531 873.859375 329.714844 874.5 330.144531 C 874.773438 330.328125 875.886719 329.75 876.234375 329.257812 C 883.796875 318.59375 889.386719 307.046875 890.617188 293.871094 C 891.257812 287.019531 891.425781 280.0625 889.429688 273.378906 C 888.441406 280.972656 888.011719 288.664062 886.285156 296.046875 C 884.59375 303.371094 881.886719 310.539062 875.984375 316.125 Z M 867.886719 290.980469 L 841.71875 309.667969 L 867.429688 327.925781 L 868.796875 327.070312 C 865.742188 314.992188 866.007812 302.875 867.886719 290.976562 Z M 925.820312 428.953125 L 858.847656 428.953125 C 858.398438 434.671875 858.398438 434.679688 863.460938 434.664062 C 882.246094 434.597656 901.03125 434.40625 919.816406 434.554688 C 924.035156 434.597656 925.691406 432.988281 925.820312 428.953125 Z M 731.398438 429.515625 C 730.894531 435.105469 731.050781 435.285156 735.082031 435.257812 C 754.253906 435.15625 773.429688 435.066406 792.601562 434.988281 C 797.816406 434.964844 797.867188 434.917969 797.609375 429.511719 Z M 943.59375 327.59375 C 939.296875 323.066406 935.125 319.082031 931.457031 314.691406 C 927.84375 310.355469 924.742188 305.585938 921.457031 301.070312 C 920.664062 312.820312 919.871094 324.332031 919.066406 336.195312 C 927.699219 335.105469 935.792969 331.8125 943.59375 327.59375 Z M 860.847656 262.769531 C 844.886719 271.121094 840.414062 286.601562 836.390625 302.253906 C 835.707031 304.910156 838.277344 306.386719 840.726562 304.84375 C 846.863281 300.976562 853.125 297.214844 858.847656 292.78125 C 861.648438 290.621094 864.101562 288.117188 866.203125 285.273438 C 868.308594 282.429688 869.984375 279.351562 871.234375 276.042969 C 872.421875 272.929688 873.105469 269.625 874.007812 266.410156 L 872.96875 266.089844 C 871.238281 269.511719 869.484375 272.921875 867.785156 276.359375 C 863.246094 285.53125 855.804688 291.660156 846.859375 296.109375 C 843.492188 297.78125 842.320312 296.902344 842.898438 293.28125 C 843.269531 290.96875 844 288.679688 844.847656 286.484375 C 848.378906 277.382812 853.25 269.175781 860.847656 262.769531 Z M 902.917969 337.980469 L 892.996094 306.714844 C 888.761719 315.046875 884.335938 323.742188 879.492188 333.273438 Z M 902.027344 232.199219 L 896.726562 256.027344 C 902.839844 257.320312 905.703125 255.546875 904.675781 250.53125 C 904.066406 247.5625 904.5625 244.378906 904.5625 240.511719 L 914.945312 248.664062 L 918.871094 243.835938 Z M 892.617188 232.269531 L 872.253906 245.160156 L 876.234375 249.621094 L 890.339844 239.523438 C 889.886719 244.117188 889.601562 247.554688 889.203125 250.972656 C 888.519531 256.796875 889.503906 257.65625 895.453125 255.980469 C 894.542969 248.375 893.628906 240.722656 892.617188 232.269531 Z M 842.550781 272.65625 C 839.371094 273.902344 836.371094 275.675781 833.164062 276.210938 C 827.027344 277.226562 825.140625 280.605469 825.191406 286.476562 C 825.242188 291.917969 827.570312 296.671875 832.460938 298.980469 Z M 828.753906 212.019531 L 809.8125 198.890625 C 808.152344 205.476562 806.511719 211.996094 804.734375 219.058594 Z M 887.113281 225.679688 L 866.917969 223.878906 C 866.820312 225.800781 866.753906 227.226562 866.671875 228.828125 L 877.460938 230.539062 C 877.210938 231.242188 877.195312 231.546875 877.035156 231.6875 C 875.335938 233.167969 873.632812 234.65625 871.886719 236.082031 C 868.125 239.175781 868.097656 239.964844 872.175781 243.933594 Z M 653.71875 398.042969 L 653.558594 396.875 C 650.089844 396.046875 646.640625 395.089844 643.128906 394.496094 C 642.503906 394.390625 641.074219 395.683594 640.953125 396.460938 C 639.628906 405.15625 638.492188 413.882812 637.328125 422.449219 C 643.199219 418.386719 642.601562 411.484375 643.085938 405.769531 C 645.292969 406.296875 648.070312 407.714844 648.800781 407.007812 C 652.335938 403.597656 647.25 401.996094 646.507812 399.5625 Z M 656.875 266.441406 C 652.246094 272.289062 646.21875 275.839844 639.195312 277.890625 C 638.539062 278.085938 637.597656 278.679688 637.507812 279.21875 C 636.785156 283.636719 636.230469 288.085938 635.628906 292.527344 L 636.710938 292.710938 C 643.503906 284.035156 654.191406 278.378906 656.875 266.441406 Z M 859.957031 251.109375 C 850.105469 260.558594 839.390625 267.988281 824.769531 267.046875 L 825.726562 274.34375 C 840.332031 270.835938 852.132812 263.929688 859.957031 251.109375 Z M 872.582031 203.546875 C 870.484375 207.328125 870.503906 207.308594 873.214844 209.613281 C 875.230469 211.332031 877.191406 213.121094 879.40625 215.082031 C 878.496094 215.59375 878.207031 215.875 877.886719 215.917969 C 875.90625 216.203125 873.925781 216.472656 871.9375 216.679688 C 867.582031 217.132812 867.382812 217.355469 867.472656 222.597656 L 885.777344 217.675781 Z M 886.519531 424.472656 C 890.808594 423.777344 892.503906 419.375 889.835938 415.363281 C 888.132812 412.789062 885.953125 410.539062 883.84375 407.96875 C 882.492188 409.609375 881.1875 410.957031 880.160156 412.488281 C 878.859375 414.425781 877.332031 416.386719 876.710938 418.566406 C 875.71875 422.019531 878.332031 424.773438 881.566406 424.027344 C 881.566406 422.441406 881.273438 420.757812 881.671875 419.246094 C 881.929688 418.269531 883.203125 417.558594 884.019531 416.726562 C 884.742188 417.492188 885.875 418.15625 886.101562 419.050781 C 886.519531 420.679688 886.398438 422.449219 886.519531 424.472656 Z M 865.355469 408.203125 C 863.515625 410.277344 861.613281 411.851562 860.488281 413.859375 C 859.332031 415.925781 858.375 418.414062 858.371094 420.726562 C 858.371094 423.070312 859.835938 425.128906 862.785156 424.429688 C 862.882812 422.554688 862.695312 420.886719 863.140625 419.414062 C 863.449219 418.40625 864.640625 417.664062 865.441406 416.800781 C 866.171875 417.816406 867.269531 418.742188 867.546875 419.867188 C 867.914062 421.363281 867.636719 423.015625 867.636719 424.648438 C 872.578125 423.960938 874.136719 419.5 871.117188 415.007812 C 869.539062 412.65625 867.457031 410.644531 865.355469 408.203125 Z M 789.824219 424.957031 C 789.824219 423.175781 789.464844 421.570312 789.933594 420.253906 C 790.351562 419.066406 791.679688 418.21875 792.605469 417.222656 C 793.332031 418.273438 794.410156 419.234375 794.699219 420.390625 C 795.066406 421.851562 794.789062 423.476562 794.789062 425.175781 C 799.089844 423.789062 800.765625 421.351562 799.144531 418.09375 C 797.433594 414.644531 794.835938 411.636719 792.449219 408.175781 C 790.070312 411.015625 788.183594 413.03125 786.570312 415.242188 C 783.628906 419.285156 785.019531 423.84375 789.824219 424.957031 Z M 753.8125 424.929688 C 753.902344 423.222656 753.738281 421.449219 754.183594 419.839844 C 754.457031 418.851562 755.660156 418.09375 756.445312 417.238281 C 757.238281 418.128906 758.40625 418.90625 758.710938 419.9375 C 759.1875 421.542969 759.066406 423.324219 759.203125 425.058594 C 763.179688 424.148438 764.984375 421.046875 763.109375 417.535156 C 761.398438 414.34375 758.878906 411.59375 756.523438 408.390625 C 754.457031 410.859375 752.863281 412.757812 751.277344 414.664062 C 750.949219 415.042969 750.648438 415.445312 750.378906 415.863281 C 747.644531 420.296875 749.234375 424.484375 753.8125 424.929688 Z M 740.40625 425.40625 C 743.4375 425.113281 744.582031 423.503906 744.9375 421.21875 C 745.882812 415.140625 740.214844 413.066406 738.179688 408.390625 C 736.21875 410.636719 734.917969 412.152344 733.59375 413.644531 C 729.019531 418.8125 730.074219 425.269531 735.457031 424.824219 C 735.457031 423.34375 735.15625 421.773438 735.550781 420.402344 C 735.875 419.265625 737.015625 418.359375 737.796875 417.351562 C 738.664062 418.421875 739.902344 419.367188 740.304688 420.589844 C 740.746094 421.921875 740.398438 423.507812 740.398438 425.40625 Z M 919.511719 407.964844 C 916.496094 412.25 911.355469 415.121094 912.851562 421.210938 C 913.191406 422.597656 915.074219 423.609375 916.242188 424.796875 C 917.097656 423.433594 917.089844 422.71875 917.101562 422.007812 C 917.132812 419.757812 916.980469 417.007812 919.835938 416.847656 C 920.550781 416.808594 921.53125 420.324219 922.261719 422.253906 C 922.488281 422.847656 922.296875 423.59375 922.296875 424.332031 C 927.925781 423.363281 929.710938 417.6875 919.511719 407.964844 Z M 903.757812 424.425781 C 907.03125 424.367188 908.414062 422.285156 908.339844 419.855469 C 908.175781 414.597656 904.304688 411.558594 900.816406 408.042969 C 897.671875 412.59375 892.515625 415.671875 894.617188 421.789062 C 895.070312 423.101562 896.757812 423.984375 898.539062 425.707031 C 898.539062 422.96875 898.226562 421.414062 898.628906 420.082031 C 899.015625 418.820312 900.160156 417.792969 900.96875 416.667969 C 901.8125 417.753906 902.980469 418.726562 903.414062 419.957031 C 903.886719 421.285156 903.671875 422.847656 903.757812 424.429688 Z M 773.640625 408.785156 C 771.820312 410.882812 769.863281 412.449219 768.847656 414.492188 C 767.75 416.691406 767.0625 419.335938 767.0625 421.78125 C 767.074219 424 768.738281 425.492188 771.167969 424.902344 C 771.34375 422.898438 771.277344 421.136719 771.726562 419.503906 C 771.96875 418.632812 773.09375 418.003906 773.816406 417.265625 C 774.558594 418.007812 775.710938 418.636719 775.953125 419.519531 C 776.402344 421.136719 776.316406 422.90625 776.546875 425.6875 C 778.066406 424.578125 779.761719 424.007812 780.125 422.96875 C 782.417969 416.449219 777.570312 413 773.640625 408.785156 Z M 823.109375 259.996094 C 831.445312 251 840.949219 244.136719 853.144531 241.675781 C 842.71875 242.40625 832.921875 244.539062 824.570312 251.335938 C 821.570312 253.777344 820.230469 255.980469 823.109375 259.996094 Z M 754.476562 447.675781 L 747.730469 439.070312 L 740.730469 447.675781 Z M 907.835938 438.246094 L 901.144531 446.835938 L 914.6875 446.835938 Z M 757.226562 447.5625 L 770.78125 447.5625 L 764.160156 439.113281 Z M 898.410156 447.089844 L 891.527344 438.457031 C 889.0625 441.542969 887.050781 444.0625 884.640625 447.085938 Z M 875.179688 438.496094 L 868.542969 446.941406 L 881.867188 446.941406 Z M 773.515625 447.402344 L 787.253906 447.402344 L 780.566406 438.960938 Z M 754.054688 292.007812 C 752.453125 289.308594 750.886719 286.664062 749.320312 284.019531 C 746.125 286.289062 745.21875 289.152344 747.070312 291.324219 C 748.957031 293.53125 751.253906 294.382812 754.054688 292.007812 Z M 772.289062 222.730469 C 768.585938 225.007812 767.519531 227.539062 769.023438 230.074219 C 770.265625 232.167969 771.992188 233.394531 774.734375 231.75 Z M 741.988281 243.621094 C 738.925781 244.613281 735.964844 245.371094 736.402344 248.929688 C 736.734375 251.636719 738.847656 252.972656 741.988281 252.902344 Z M 776.113281 235.867188 C 773.144531 238.363281 772.082031 240.738281 773.839844 243.5 C 775.226562 245.679688 777.34375 246.347656 779.804688 244.640625 Z M 769.769531 208.988281 C 766.695312 209.847656 764.761719 211.257812 765.289062 214.039062 C 765.792969 216.710938 767.816406 218.035156 771.226562 217.8125 C 770.746094 214.859375 770.296875 212.15625 769.769531 208.988281 Z M 741.832031 257.550781 C 738.464844 258.675781 736.882812 260.621094 737.746094 263.636719 C 738.425781 266 739.9375 267.917969 743.011719 266.640625 C 742.613281 263.589844 742.238281 260.679688 741.832031 257.550781 Z M 763.117188 302.6875 C 760.839844 300.351562 758.734375 298.195312 756.519531 295.929688 C 754.664062 298.542969 754.898438 300.792969 756.976562 302.773438 C 758.855469 304.550781 760.886719 304.75 763.117188 302.6875 Z M 743.867188 270.75 C 741.34375 272.886719 739.710938 274.671875 741.152344 277.527344 C 742.339844 279.878906 744.144531 281.011719 747.273438 279.960938 C 746.160156 276.949219 745.101562 274.105469 743.867188 270.75 Z M 781.867188 248.617188 C 778.332031 253.144531 779.390625 257.128906 783.660156 257.738281 C 785.460938 257.996094 786.921875 257.402344 785.929688 255.289062 C 784.898438 253.085938 783.398438 251.09375 781.867188 248.617188 Z M 793.824219 268.1875 L 789.011719 259.988281 C 786.757812 261.964844 785.84375 263.671875 787.230469 266.164062 C 788.617188 268.660156 790.496094 269.398438 793.824219 268.1875 Z M 744.328125 231.003906 C 740.875 231.34375 738.277344 232.164062 738.277344 235.464844 C 738.277344 237.972656 739.960938 239.492188 742.953125 239.277344 C 743.398438 236.65625 743.820312 234.117188 744.335938 231.011719 Z M 815.734375 245.085938 L 819.101562 250.757812 L 826.078125 245.09375 Z M 748.046875 219.824219 L 746.8125 218.585938 C 745.058594 219.972656 742.894531 221.078125 741.765625 222.855469 C 741.382812 223.460938 743.601562 225.71875 744.628906 227.222656 L 745.886719 226.652344 Z M 737.75 447.410156 L 732.40625 440.796875 C 731.609375 448.054688 731.921875 448.457031 737.753906 447.410156 Z M 768.859375 197.164062 C 765.855469 197.359375 764.550781 198.828125 765.015625 201.355469 C 765.414062 203.476562 766.910156 204.378906 769.386719 203.667969 C 769.203125 201.40625 769.035156 199.347656 768.859375 197.164062 Z M 795.785156 440.203125 L 790.457031 447.132812 C 795.816406 448.199219 796.070312 447.894531 795.785156 440.203125 Z M 796.734375 273.207031 L 795.183594 273.234375 C 795.054688 274.746094 794.375 276.523438 794.949219 277.683594 C 795.523438 278.84375 797.351562 279.390625 798.628906 280.207031 L 799.617188 279.179688 C 798.664062 277.191406 797.707031 275.199219 796.742188 273.207031 Z M 865.289062 446.804688 L 860.4375 440.765625 C 860.132812 447.800781 860.132812 447.800781 865.296875 446.804688 Z M 766.9375 305.359375 C 766.875 310.179688 769.558594 311.90625 773.605469 309.910156 Z M 766.9375 305.359375" style="stroke:none;fill-rule:nonzero;fill:#000000;fill-opacity:1;"/>
    </g>
    <path d="M 688.589844 289.933594 C 688.644531 285.203125 692.511719 281.492188 697.367188 281.515625 C 702.15625 281.539062 706.164062 285.40625 706.136719 289.976562 C 706.105469 295.011719 702.25 298.929688 697.378906 298.886719 C 692.507812 298.839844 688.53125 294.773438 688.589844 289.933594 Z M 688.589844 289.933594" style="stroke:none;fill-rule:nonzero;fill:#000000;fill-opacity:1;"/>
    <path d="M 638.3125 308.117188 C 643.183594 307.394531 648.035156 306.335938 652.933594 306.054688 C 656.625 305.839844 659.664062 308.9375 659.601562 311.847656 C 659.539062 314.847656 657.0625 316.625 652.820312 316.828125 C 646.59375 317.121094 642.40625 313.476562 638.203125 309.828125 C 638.238281 309.257812 638.277344 308.6875 638.3125 308.117188 Z M 638.3125 308.117188" style="stroke:none;fill-rule:nonzero;fill:#000000;fill-opacity:1;"/>
    <path d="M 637.734375 306.082031 C 639.476562 302.78125 640.898438 299.257812 643.058594 296.257812 C 644.585938 294.132812 647.289062 293.339844 649.59375 295.511719 C 651.808594 297.589844 650.761719 299.976562 649.316406 301.910156 C 646.773438 305.300781 643 306.433594 639.070312 307.09375 Z M 637.734375 306.082031" style="stroke:none;fill-rule:nonzero;fill:#000000;fill-opacity:1;"/>
    <path d="M 664.269531 347.339844 C 661.234375 347.292969 659.046875 345.082031 659.121094 342.132812 C 659.183594 339.488281 661.921875 337.027344 664.667969 337.15625 C 667.117188 337.269531 669.964844 339.925781 669.976562 342.105469 C 669.972656 344.902344 667.269531 347.382812 664.269531 347.339844 Z M 664.269531 347.339844" style="stroke:none;fill-rule:nonzero;fill:#000000;fill-opacity:1;"/>
    <path d="M 667.421875 353.886719 C 668.484375 355.570312 670.453125 357.320312 670.339844 358.921875 C 670.238281 360.316406 667.753906 362.601562 666.378906 362.554688 C 664.929688 362.507812 662.457031 360.191406 662.433594 358.832031 C 662.40625 357.199219 664.5 355.539062 665.675781 353.882812 Z M 667.421875 353.886719" style="stroke:none;fill-rule:nonzero;fill:#000000;fill-opacity:1;"/>
    <path d="M 724.5 194.558594 C 723.136719 195.523438 721.703125 197.332031 720.429688 197.21875 C 719.042969 197.105469 716.972656 195.363281 716.730469 194.054688 C 716.351562 192.007812 717.945312 190.039062 720.34375 190.441406 C 721.828125 190.691406 723.117188 192.105469 724.503906 192.996094 Z M 724.5 194.558594" style="stroke:none;fill-rule:nonzero;fill:#000000;fill-opacity:1;"/>
    <path d="M 718.582031 203.160156 C 720.214844 205.378906 721.816406 206.621094 721.8125 207.851562 C 721.8125 208.886719 719.867188 210.808594 718.910156 210.734375 C 717.65625 210.632812 715.773438 209.085938 715.574219 207.917969 C 715.386719 206.832031 717.054688 205.425781 718.582031 203.160156 Z M 718.582031 203.160156" style="stroke:none;fill-rule:nonzero;fill:#000000;fill-opacity:1;"/>
    <path d="M 713.867188 216.234375 C 715.253906 218.410156 716.648438 219.65625 716.605469 220.851562 C 716.574219 221.789062 714.738281 223.375 713.722656 223.363281 C 712.703125 223.351562 710.949219 221.679688 710.949219 220.75 C 710.960938 219.542969 712.40625 218.351562 713.867188 216.234375 Z M 713.867188 216.234375" style="stroke:none;fill-rule:nonzero;fill:#000000;fill-opacity:1;"/>
    <path d="M 710.363281 230.816406 C 708.382812 231.953125 707.195312 233.160156 706.085938 233.085938 C 705.203125 233.027344 704.425781 231.410156 703.601562 230.484375 C 704.617188 229.65625 705.582031 228.308594 706.675781 228.164062 C 707.535156 228.054688 708.585938 229.460938 710.363281 230.816406 Z M 710.363281 230.816406" style="stroke:none;fill-rule:nonzero;fill:#000000;fill-opacity:1;"/>
    <path d="M 699.960938 237.300781 C 698.460938 238.371094 697.339844 239.710938 696.6875 239.511719 C 695.714844 239.214844 695.066406 237.835938 694.28125 236.914062 C 695.117188 236.226562 695.960938 234.992188 696.789062 235 C 697.667969 235 698.535156 236.191406 699.960938 237.300781 Z M 699.960938 237.300781" style="stroke:none;fill-rule:nonzero;fill:#000000;fill-opacity:1;"/>
    <path d="M 689.070312 241.542969 C 687.664062 242.382812 686.738281 243.382812 685.957031 243.28125 C 685.175781 243.179688 684.496094 241.996094 683.777344 241.285156 C 684.621094 240.566406 685.398438 239.414062 686.332031 239.269531 C 686.960938 239.171875 687.820312 240.46875 689.070312 241.542969 Z M 689.070312 241.542969" style="stroke:none;fill-rule:nonzero;fill:#000000;fill-opacity:1;"/>
    <path d="M 869.453125 345.113281 C 870.800781 352.566406 872.367188 359.988281 873.414062 367.484375 C 873.976562 371.542969 871.726562 374.457031 868.003906 375.960938 C 864.664062 377.308594 860.125 376.40625 857.90625 373.953125 C 855.277344 371.042969 854.609375 366.953125 856.699219 363.503906 C 860.460938 357.320312 864.46875 351.300781 868.382812 345.210938 Z M 869.453125 345.113281" style="stroke:none;fill-rule:nonzero;fill:#000000;fill-opacity:1;"/>
    <path d="M 913.941406 353.464844 C 917.542969 360.65625 921.464844 367.710938 924.582031 375.105469 C 925.800781 378.003906 924.078125 381.285156 921.332031 383.296875 C 918.132812 385.636719 914.65625 385.984375 911.152344 383.902344 C 908.113281 382.097656 906.148438 379.347656 906.882812 375.84375 C 908.15625 369.753906 909.960938 363.765625 911.574219 357.761719 C 911.945312 356.375 912.449219 355.039062 912.894531 353.683594 Z M 913.941406 353.464844" style="stroke:none;fill-rule:nonzero;fill:#000000;fill-opacity:1;"/>
    <path d="M 831.226562 319.9375 C 830.476562 325.085938 829.75 330.234375 828.957031 335.371094 C 828.601562 337.703125 828.335938 340.089844 827.621094 342.324219 C 826.3125 346.394531 823.40625 348.285156 819.171875 348.351562 C 815.210938 348.410156 812.492188 346.570312 810.894531 343.054688 C 809.300781 339.542969 810.0625 335.476562 813.242188 332.878906 C 818.824219 328.3125 824.617188 324.003906 830.328125 319.585938 Z M 831.226562 319.9375" style="stroke:none;fill-rule:nonzero;fill:#000000;fill-opacity:1;"/>
    <path d="M 665.21875 227.875 C 672.277344 217.371094 679.867188 208.867188 690.882812 204.214844 C 692.570312 203.503906 695.96875 203.457031 696.605469 204.410156 C 697.6875 206.039062 698.175781 209.398438 697.183594 210.800781 C 694.652344 214.378906 691.667969 218.195312 687.941406 220.238281 C 682.003906 223.496094 675.34375 225.433594 668.949219 227.832031 C 668.117188 228.144531 667.066406 227.875 665.21875 227.875 Z M 665.21875 227.875" style="stroke:none;fill-rule:nonzero;fill:#000000;fill-opacity:1;"/>
    <path d="M 652.796875 244.730469 C 652.945312 251.199219 652.890625 257.675781 649.035156 263.324219 C 648.277344 264.425781 646.507812 264.832031 645.207031 265.554688 C 644.761719 264.109375 643.574219 262.386719 644 261.269531 C 646.210938 255.496094 648.835938 249.882812 651.324219 244.214844 Z M 652.796875 244.730469" style="stroke:none;fill-rule:nonzero;fill:#000000;fill-opacity:1;"/>
    <path d="M 662.230469 240.222656 C 666.390625 241.46875 669.964844 243.109375 672.328125 246.539062 C 673.777344 248.632812 674.183594 251.023438 671.839844 252.898438 C 669.59375 254.695312 667.460938 253.585938 665.816406 251.980469 C 662.65625 248.890625 662.054688 244.878906 662.230469 240.222656 Z M 662.230469 240.222656" style="stroke:none;fill-rule:nonzero;fill:#000000;fill-opacity:1;"/>
    <path d="M 857.460938 316.101562 C 856.34375 314.472656 854.558594 312.953125 854.265625 311.191406 C 853.835938 308.585938 855.835938 307.1875 858.449219 307.160156 C 861.191406 307.132812 862.921875 308.894531 862.554688 311.320312 C 862.292969 313.054688 860.40625 314.539062 859.246094 316.136719 Z M 857.460938 316.101562" style="stroke:none;fill-rule:nonzero;fill:#000000;fill-opacity:1;"/>
    <path d="M 933.527344 324.675781 C 931.902344 325.828125 930.386719 327.722656 928.640625 327.964844 C 926.148438 328.304688 924.570312 326.421875 924.578125 323.695312 C 924.578125 320.816406 926.609375 319.367188 928.914062 319.667969 C 930.554688 319.878906 931.980469 321.796875 933.503906 322.953125 Z M 933.527344 324.675781" style="stroke:none;fill-rule:nonzero;fill:#000000;fill-opacity:1;"/>
    <path d="M 890.859375 323.894531 C 894.773438 324.121094 896.441406 325.480469 896.417969 328.136719 C 896.394531 330.484375 895.089844 332.414062 892.53125 332.164062 C 890.390625 331.957031 887.609375 331.242188 888.089844 328.3125 C 888.378906 326.539062 890.121094 325.007812 890.859375 323.894531 Z M 890.859375 323.894531" style="stroke:none;fill-rule:nonzero;fill:#000000;fill-opacity:1;"/>
    <path d="M 830.570312 290.742188 C 828.835938 288.320312 827.0625 286.929688 827.121094 285.617188 C 827.179688 284.269531 829.027344 282.996094 830.089844 281.691406 C 831.476562 282.863281 833.734375 283.871094 833.996094 285.253906 C 834.234375 286.5 832.285156 288.164062 830.570312 290.742188 Z M 830.570312 290.742188" style="stroke:none;fill-rule:nonzero;fill:#000000;fill-opacity:1;"/>
    <path d="M 809.191406 209.125 C 810.613281 208.160156 812.078125 206.398438 813.445312 206.464844 C 814.691406 206.53125 816.953125 208.824219 816.765625 209.714844 C 816.457031 211.199219 814.714844 213.035156 813.25 213.398438 C 812.203125 213.660156 810.617188 211.753906 809.273438 210.8125 Z M 809.191406 209.125" style="stroke:none;fill-rule:nonzero;fill:#000000;fill-opacity:1;"/>
  </g>
</svg>