<svg version="1.2" preserveAspectRatio="xMidYMid meet" viewBox="241.31968503937006 34.500015000000005 68.39145106861643 75.15" zoomAndPan="magnify" xmlns:xlink="http://www.w3.org/1999/xlink" xmlns="http://www.w3.org/2000/svg" style="max-height: 500px" width="68.39145106861643" height="75.15"><defs><clipPath id="1fc45eb127"><path d="M98.224 173.333h10.833v13.327h-10.833Zm0 0"/></clipPath><clipPath id="da4247f26e"><path d="M121.689 161.517h8.75v9.375h-8.75Zm0 0"/></clipPath><clipPath id="53a80adf34"><path d="M129.923 177.97h9.375v6.667h-9.375Zm0 0"/></clipPath></defs><g id="b448a166f2"><path d="M274.765 38.697c-1.863 0 -3.723 0.712 -5.138 2.126a6.944 6.944 0 0 0 -0.477 0.529c-0.151 0.183 -0.292 0.376 -0.424 0.573q-0.197 0.297 -0.366 0.613a7.278 7.278 0 0 0 -0.82 2.714 7.5 7.5 0 0 0 -0.035 0.712q0 0.358 0.035 0.713 0.034 0.355 0.104 0.706 0.07 0.351 0.172 0.692a7.389 7.389 0 0 0 0.544 1.317q0.168 0.314 0.366 0.612c0.132 0.197 0.273 0.389 0.424 0.573q0.225 0.277 0.478 0.529l3.425 3.428 -1.713 1.713a1.194 1.194 0 0 0 -0.27 0.394q-0.049 0.111 -0.073 0.229 -0.024 0.117 -0.026 0.238 0 0.121 0.023 0.24 0.023 0.117 0.068 0.23 0.045 0.111 0.112 0.212a1.194 1.194 0 0 0 0.337 0.337 1.208 1.208 0 0 0 0.92 0.177 1.208 1.208 0 0 0 0.622 -0.343l1.712 -1.713 6.852 6.854 -6.852 6.854 -6.851 -6.854 1.713 -1.714c0.057 -0.055 0.108 -0.116 0.155 -0.182q0.068 -0.099 0.115 -0.211a1.194 1.194 0 0 0 0.076 -0.706 1.194 1.194 0 0 0 -0.068 -0.23 1.111 1.111 0 0 0 -0.112 -0.212 1.25 1.25 0 0 0 -0.152 -0.187 1.25 1.25 0 0 0 -0.398 -0.265 1.194 1.194 0 0 0 -0.469 -0.09 1.243 1.243 0 0 0 -0.468 0.098 1.278 1.278 0 0 0 -0.209 0.116 1.25 1.25 0 0 0 -0.183 0.155l-1.712 1.713 -5.139 -5.14a7.5 7.5 0 0 0 -0.529 -0.477 6.944 6.944 0 0 0 -0.574 -0.423 7.222 7.222 0 0 0 -0.612 -0.366 7.5 7.5 0 0 0 -0.644 -0.304 6.944 6.944 0 0 0 -0.672 -0.239q-0.342 -0.104 -0.692 -0.173 -0.35 -0.069 -0.706 -0.103a7.222 7.222 0 0 0 -0.712 -0.036q-0.356 0 -0.712 0.035 -0.355 0.036 -0.706 0.104a7.5 7.5 0 0 0 -0.692 0.172 7.389 7.389 0 0 0 -1.316 0.544q-0.316 0.167 -0.612 0.366 -0.297 0.197 -0.574 0.423a7.5 7.5 0 0 0 -0.53 0.477 7.361 7.361 0 0 0 -0.901 1.102 7.276 7.276 0 0 0 -0.669 1.257 7.361 7.361 0 0 0 -0.411 1.363q-0.07 0.35 -0.104 0.705a7.111 7.111 0 0 0 0 1.425q0.034 0.355 0.104 0.705 0.068 0.35 0.172 0.692a7.222 7.222 0 0 0 0.543 1.316c0.112 0.209 0.234 0.413 0.366 0.612q0.197 0.296 0.423 0.573 0.226 0.277 0.477 0.529l5.143 5.145 -5.143 5.141a7.222 7.222 0 0 0 -0.478 0.529 7.222 7.222 0 0 0 -0.789 1.186 7.222 7.222 0 0 0 -0.304 0.644 7.361 7.361 0 0 0 -0.517 2.068 7.5 7.5 0 0 0 -0.034 0.712c0 0.239 0.012 0.475 0.035 0.713q0.035 0.355 0.105 0.705 0.068 0.35 0.172 0.691a7.25 7.25 0 0 0 1.809 3.032 7.361 7.361 0 0 0 1.103 0.902q0.296 0.197 0.612 0.365 0.316 0.167 0.644 0.304 0.331 0.136 0.672 0.24 0.342 0.103 0.692 0.172 0.35 0.069 0.705 0.104 0.355 0.034 0.712 0.035 0.357 0 0.712 -0.035 0.355 -0.036 0.705 -0.104a7.5 7.5 0 0 0 0.692 -0.172 7.389 7.389 0 0 0 1.316 -0.544 7.222 7.222 0 0 0 0.612 -0.366q0.298 -0.197 0.574 -0.423a7.5 7.5 0 0 0 0.529 -0.477l5.136 -5.138 6.854 6.851 -3.426 3.428a6.944 6.944 0 0 0 -0.477 0.529 7.287 7.287 0 0 0 -1.332 2.502 7.5 7.5 0 0 0 -0.172 0.691 7.778 7.778 0 0 0 -0.104 0.706 7.5 7.5 0 0 0 -0.035 0.712c0 0.239 0.012 0.475 0.035 0.713 0.024 0.237 0.059 0.471 0.104 0.706q0.07 0.349 0.173 0.691a7.389 7.389 0 0 0 0.544 1.316q0.167 0.316 0.366 0.613 0.197 0.296 0.423 0.573 0.225 0.277 0.478 0.529a7.222 7.222 0 0 0 0.528 0.478q0.276 0.226 0.574 0.423 0.296 0.198 0.612 0.366c0.209 0.112 0.424 0.214 0.644 0.304 0.219 0.091 0.444 0.171 0.671 0.24q0.342 0.104 0.692 0.172 0.349 0.07 0.704 0.104c0.237 0.024 0.474 0.035 0.712 0.035 0.239 0 0.475 -0.011 0.712 -0.035a6.944 6.944 0 0 0 0.705 -0.104q0.351 -0.068 0.691 -0.172 0.342 -0.103 0.672 -0.24a6.944 6.944 0 0 0 0.644 -0.304q0.316 -0.167 0.612 -0.366 0.298 -0.197 0.573 -0.423c0.184 -0.151 0.361 -0.309 0.529 -0.477a7.222 7.222 0 0 0 0.477 -0.529 6.944 6.944 0 0 0 0.423 -0.574q0.198 -0.296 0.366 -0.612c0.112 -0.209 0.212 -0.426 0.304 -0.644a7.361 7.361 0 0 0 0.516 -2.068c0.023 -0.237 0.035 -0.474 0.035 -0.713q0 -0.357 -0.035 -0.712 -0.036 -0.355 -0.105 -0.705a7.371 7.371 0 0 0 -0.411 -1.364 7.287 7.287 0 0 0 -1.093 -1.829 7.222 7.222 0 0 0 -0.477 -0.529l-3.426 -3.428 1.712 -1.713q0.087 -0.084 0.155 -0.183c0.046 -0.066 0.085 -0.136 0.116 -0.211a1.181 1.181 0 0 0 0.098 -0.467 1.195 1.195 0 0 0 -0.203 -0.681c-0.045 -0.066 -0.094 -0.128 -0.152 -0.186a1.234 1.234 0 0 0 -0.397 -0.265 1.222 1.222 0 0 0 -0.23 -0.068 1.389 1.389 0 0 0 -0.239 -0.022q-0.12 0.002 -0.239 0.026a1.196 1.196 0 0 0 -0.438 0.188q-0.1 0.068 -0.183 0.155l-1.713 1.713 -6.851 -6.854 6.851 -6.854 6.852 6.854 -1.713 1.713a1.194 1.194 0 0 0 -0.27 0.394q-0.049 0.111 -0.073 0.229 -0.024 0.118 -0.026 0.239 0 0.12 0.022 0.239 0.023 0.118 0.069 0.23 0.045 0.112 0.112 0.213a1.25 1.25 0 0 0 0.337 0.337q0.101 0.067 0.213 0.112 0.111 0.045 0.229 0.069c0.079 0.015 0.159 0.022 0.24 0.022q0.12 -0.002 0.237 -0.026c0.079 -0.016 0.155 -0.041 0.229 -0.072a1.194 1.194 0 0 0 0.394 -0.27l1.712 -1.714 5.139 5.141a7.222 7.222 0 0 0 0.53 0.477q0.276 0.226 0.574 0.423 0.296 0.198 0.612 0.366a7.378 7.378 0 0 0 1.316 0.544 7.222 7.222 0 0 0 1.398 0.277 7.222 7.222 0 0 0 0.712 0.035q0.357 0 0.712 -0.035 0.355 -0.034 0.705 -0.104a7.263 7.263 0 0 0 1.363 -0.412 7.287 7.287 0 0 0 1.257 -0.669q0.298 -0.197 0.574 -0.423a7.5 7.5 0 0 0 0.529 -0.477 7.5 7.5 0 0 0 0.477 -0.529 7.778 7.778 0 0 0 0.423 -0.573q0.197 -0.298 0.366 -0.612 0.167 -0.316 0.304 -0.646c0.09 -0.219 0.171 -0.444 0.239 -0.672 0.069 -0.227 0.127 -0.458 0.172 -0.691q0.07 -0.35 0.104 -0.706c0.024 -0.237 0.035 -0.474 0.035 -0.713q0 -0.356 -0.035 -0.712 -0.034 -0.355 -0.104 -0.706a7.35 7.35 0 0 0 -0.411 -1.363 7.222 7.222 0 0 0 -0.669 -1.257 7.778 7.778 0 0 0 -0.423 -0.573 7.5 7.5 0 0 0 -0.478 -0.53l-5.143 -5.141 5.143 -5.145a7.5 7.5 0 0 0 0.477 -0.529 7.778 7.778 0 0 0 0.423 -0.573q0.197 -0.298 0.365 -0.612c0.112 -0.211 0.214 -0.425 0.304 -0.646q0.137 -0.33 0.24 -0.672t0.172 -0.691q0.07 -0.35 0.104 -0.706c0.024 -0.237 0.035 -0.474 0.035 -0.713q0 -0.356 -0.035 -0.712 -0.034 -0.355 -0.104 -0.706a7.5 7.5 0 0 0 -0.172 -0.691 6.944 6.944 0 0 0 -0.24 -0.672 7.222 7.222 0 0 0 -0.304 -0.646 7.5 7.5 0 0 0 -0.365 -0.612 7.778 7.778 0 0 0 -0.423 -0.573 7.5 7.5 0 0 0 -0.478 -0.53 7.5 7.5 0 0 0 -0.529 -0.477 6.944 6.944 0 0 0 -0.574 -0.423 7.278 7.278 0 0 0 -1.257 -0.669 6.944 6.944 0 0 0 -0.672 -0.239 7.222 7.222 0 0 0 -0.691 -0.173q-0.35 -0.069 -0.706 -0.103a7.222 7.222 0 0 0 -0.712 -0.036q-0.356 0 -0.712 0.035 -0.356 0.036 -0.706 0.104a7.5 7.5 0 0 0 -0.692 0.172 7.389 7.389 0 0 0 -1.316 0.544q-0.316 0.167 -0.612 0.366 -0.297 0.197 -0.574 0.423 -0.277 0.226 -0.53 0.477l-5.137 5.138 -6.853 -6.851 3.426 -3.428a7.222 7.222 0 0 0 0.477 -0.529c0.151 -0.183 0.292 -0.375 0.424 -0.573q0.197 -0.298 0.366 -0.612 0.167 -0.316 0.304 -0.646 0.136 -0.33 0.239 -0.672a7.222 7.222 0 0 0 0.278 -1.397q0.034 -0.356 0.035 -0.712 0 -0.358 -0.035 -0.713a7.778 7.778 0 0 0 -0.104 -0.705 7.489 7.489 0 0 0 -0.412 -1.364 7.5 7.5 0 0 0 -0.304 -0.644 7.778 7.778 0 0 0 -0.366 -0.613 7.5 7.5 0 0 0 -0.424 -0.573 7.222 7.222 0 0 0 -0.477 -0.529 7.278 7.278 0 0 0 -1.101 -0.905 7.222 7.222 0 0 0 -1.256 -0.671 7.231 7.231 0 0 0 -2.781 -0.55m0 2.411c1.236 0 2.474 0.477 3.426 1.43a4.722 4.722 0 0 1 0.606 0.733q0.133 0.197 0.245 0.407c0.076 0.14 0.143 0.283 0.205 0.43q0.091 0.22 0.161 0.448 0.069 0.228 0.116 0.462c0.031 0.155 0.054 0.312 0.071 0.47a5 5 0 0 1 0 0.952 4.917 4.917 0 0 1 -0.187 0.932 5 5 0 0 1 -0.161 0.447 5 5 0 0 1 -0.205 0.429q-0.112 0.21 -0.245 0.408a4.689 4.689 0 0 1 -0.606 0.733l-3.426 3.429 -3.426 -3.429a4.889 4.889 0 0 1 -0.606 -0.733q-0.133 -0.199 -0.245 -0.408a4.686 4.686 0 0 1 -0.366 -0.878 4.444 4.444 0 0 1 -0.116 -0.462q-0.047 -0.233 -0.071 -0.471a5 5 0 0 1 -0.024 -0.475c0 -0.158 0.009 -0.317 0.024 -0.475q0.023 -0.237 0.071 -0.471 0.046 -0.233 0.116 -0.461a4.745 4.745 0 0 1 0.366 -0.879 4.722 4.722 0 0 1 0.531 -0.789q0.151 -0.184 0.32 -0.352c0.953 -0.951 2.187 -1.43 3.426 -1.43Zm-18.841 15.427c1.236 0 2.474 0.472 3.426 1.425l5.137 5.139 -6.849 6.858 -5.143 -5.143a4.722 4.722 0 0 1 -0.321 -0.352 4.816 4.816 0 0 1 -0.896 -1.667 4.889 4.889 0 0 1 -0.186 -0.933 5 5 0 0 1 0 -0.952 4.917 4.917 0 0 1 0.187 -0.932 4.857 4.857 0 0 1 0.611 -1.286q0.133 -0.199 0.285 -0.382 0.152 -0.184 0.321 -0.352a4.764 4.764 0 0 1 1.572 -1.055 4.778 4.778 0 0 1 1.858 -0.37m37.683 0c1.237 0 2.481 0.472 3.43 1.425a4.722 4.722 0 0 1 0.606 0.733q0.133 0.198 0.246 0.408a4.861 4.861 0 0 1 0.482 1.339 5 5 0 0 1 0.093 0.947c0 0.158 -0.008 0.318 -0.024 0.475a5 5 0 0 1 -0.069 0.471 5.278 5.278 0 0 1 -0.116 0.462 4.857 4.857 0 0 1 -0.366 0.878q-0.114 0.21 -0.246 0.407 -0.132 0.198 -0.284 0.382 -0.152 0.184 -0.321 0.352l-5.143 5.145 -6.851 -6.858 5.138 -5.141a4.792 4.792 0 0 1 1.571 -1.055 4.75 4.75 0 0 1 1.856 -0.37m-27.406 8.279 6.851 6.859 -6.851 6.854 -6.852 -6.854c3.014 -3.017 5.298 -5.307 6.852 -6.859m17.128 0 6.851 6.859 -6.851 6.854 -6.851 -6.854Zm-25.692 8.57 6.851 6.854 -5.139 5.141q-0.167 0.168 -0.351 0.321 -0.184 0.152 -0.382 0.284 -0.197 0.134 -0.408 0.246 -0.21 0.112 -0.429 0.205 -0.22 0.091 -0.448 0.161 -0.228 0.07 -0.462 0.116 -0.233 0.047 -0.471 0.071a5 5 0 0 1 -0.951 0q-0.238 -0.023 -0.471 -0.071 -0.234 -0.046 -0.462 -0.116a5 5 0 0 1 -0.448 -0.161 5.278 5.278 0 0 1 -0.431 -0.205q-0.21 -0.113 -0.407 -0.246 -0.198 -0.132 -0.382 -0.284a5.278 5.278 0 0 1 -0.352 -0.321 4.444 4.444 0 0 1 -0.321 -0.353 4.722 4.722 0 0 1 -0.531 -0.789 4.861 4.861 0 0 1 -0.552 -1.811 5 5 0 0 1 0 -0.951 4.889 4.889 0 0 1 0.187 -0.933c0.047 -0.151 0.1 -0.301 0.162 -0.447a4.722 4.722 0 0 1 0.204 -0.431q0.113 -0.21 0.245 -0.408 0.134 -0.197 0.285 -0.381t0.321 -0.352Zm34.257 0 5.143 5.141q0.169 0.168 0.321 0.352a4.833 4.833 0 0 1 0.735 1.219q0.091 0.221 0.162 0.447c0.046 0.153 0.084 0.306 0.116 0.462a4.889 4.889 0 0 1 0.093 0.946q0 0.239 -0.024 0.475a5 5 0 0 1 -0.069 0.471 5.278 5.278 0 0 1 -0.116 0.462 4.857 4.857 0 0 1 -0.366 0.878q-0.114 0.211 -0.246 0.408 -0.132 0.198 -0.284 0.382 -0.152 0.184 -0.321 0.351 -0.167 0.168 -0.352 0.321 -0.183 0.152 -0.382 0.284c-0.131 0.089 -0.268 0.17 -0.408 0.246a4.861 4.861 0 0 1 -1.811 0.552 5 5 0 0 1 -0.952 0 4.722 4.722 0 0 1 -0.471 -0.071 4.444 4.444 0 0 1 -0.461 -0.116 5 5 0 0 1 -0.448 -0.161 5 5 0 0 1 -0.431 -0.205q-0.21 -0.113 -0.408 -0.246a4.833 4.833 0 0 1 -0.733 -0.606l-5.136 -5.141Zm-17.129 17.135 3.426 3.427a4.917 4.917 0 0 1 0.607 0.733 5 5 0 0 1 0.45 0.838q0.091 0.22 0.161 0.448 0.069 0.228 0.116 0.462c0.031 0.155 0.054 0.312 0.071 0.471a5 5 0 0 1 0 0.951 4.889 4.889 0 0 1 -0.347 1.381 5.278 5.278 0 0 1 -0.205 0.43 4.806 4.806 0 0 1 -0.852 1.141q-0.168 0.169 -0.35 0.321a4.722 4.722 0 0 1 -0.382 0.285q-0.197 0.132 -0.408 0.246a4.988 4.988 0 0 1 -0.877 0.366q-0.228 0.069 -0.462 0.116a5 5 0 0 1 -0.471 0.069c-0.157 0.017 -0.316 0.024 -0.475 0.024q-0.238 0 -0.476 -0.024a5 5 0 0 1 -0.471 -0.069 5.278 5.278 0 0 1 -0.461 -0.116 4.857 4.857 0 0 1 -0.878 -0.366 5.278 5.278 0 0 1 -0.407 -0.247 4.722 4.722 0 0 1 -0.382 -0.285 4.722 4.722 0 0 1 -0.352 -0.321q-0.169 -0.168 -0.32 -0.352a4.722 4.722 0 0 1 -0.285 -0.382q-0.133 -0.197 -0.245 -0.407a4.686 4.686 0 0 1 -0.366 -0.878 4.444 4.444 0 0 1 -0.116 -0.462q-0.047 -0.233 -0.071 -0.471a5 5 0 0 1 -0.024 -0.475c0 -0.159 0.009 -0.318 0.024 -0.475q0.023 -0.238 0.071 -0.471 0.046 -0.235 0.116 -0.462a4.722 4.722 0 0 1 0.366 -0.878 4.722 4.722 0 0 1 0.531 -0.79q0.151 -0.182 0.32 -0.352Zm0 0" style="stroke:none;fill-rule:evenodd;fill:#000000;fill-opacity:1;"/><path d="M273.908 96.521a1.222 1.222 0 0 0 -0.151 0.183q-0.067 0.099 -0.112 0.209 -0.046 0.111 -0.068 0.227a1.167 1.167 0 0 0 -0.024 0.238c0 0.079 0.007 0.158 0.024 0.235a1.194 1.194 0 0 0 0.331 0.621q0.084 0.085 0.183 0.152 0.1 0.066 0.211 0.112a1.167 1.167 0 0 0 0.463 0.092q0.121 0 0.238 -0.023c0.078 -0.015 0.153 -0.039 0.227 -0.069q0.111 -0.045 0.209 -0.112a1.25 1.25 0 0 0 0.335 -0.335 1.197 1.197 0 0 0 0.18 -0.437c0.017 -0.078 0.024 -0.156 0.024 -0.236q0 -0.12 -0.024 -0.237a1.222 1.222 0 0 0 -0.18 -0.436 1.222 1.222 0 0 0 -0.771 -0.517 1.25 1.25 0 0 0 -0.474 0q-0.117 0.024 -0.227 0.069 -0.111 0.046 -0.211 0.113 -0.099 0.067 -0.183 0.151m0 0" style="stroke:none;fill-rule:evenodd;fill:#000000;fill-opacity:1;"/><path d="M282.475 70.816a1.111 1.111 0 0 0 -0.15 0.183q-0.067 0.099 -0.112 0.208a1.194 1.194 0 0 0 -0.068 0.228 1.111 1.111 0 0 0 -0.024 0.236q0 0.119 0.024 0.236a1.211 1.211 0 0 0 0.33 0.619 1.255 1.255 0 0 0 0.393 0.262q0.111 0.046 0.228 0.069 0.116 0.024 0.236 0.024c0.081 0 0.158 -0.007 0.237 -0.024a1.167 1.167 0 0 0 0.436 -0.181c0.066 -0.044 0.128 -0.094 0.184 -0.15a1.255 1.255 0 0 0 0.262 -0.394c0.031 -0.074 0.053 -0.148 0.069 -0.227a1.25 1.25 0 0 0 0 -0.473 1.167 1.167 0 0 0 -0.069 -0.227 1.306 1.306 0 0 0 -0.113 -0.211 1.222 1.222 0 0 0 -0.15 -0.183 1.222 1.222 0 0 0 -0.184 -0.15 1.181 1.181 0 0 0 -0.436 -0.181 1.111 1.111 0 0 0 -0.237 -0.024q-0.119 0 -0.235 0.024a1.181 1.181 0 0 0 -0.437 0.181c-0.066 0.044 -0.127 0.094 -0.183 0.15Zm-17.133 0a1.111 1.111 0 0 0 -0.15 0.183 1.206 1.206 0 0 0 -0.204 0.672q0 0.119 0.023 0.236 0.024 0.116 0.069 0.227a1.214 1.214 0 0 0 0.445 0.544 1.222 1.222 0 0 0 0.437 0.181q0.117 0.024 0.236 0.024c0.081 0 0.158 -0.007 0.237 -0.024q0.117 -0.023 0.228 -0.069 0.111 -0.046 0.209 -0.112 0.099 -0.067 0.184 -0.151a1.222 1.222 0 0 0 0.263 -0.394 1.241 1.241 0 0 0 0.092 -0.463 1.25 1.25 0 0 0 -0.092 -0.464 1.389 1.389 0 0 0 -0.112 -0.209 1.278 1.278 0 0 0 -0.151 -0.183 1.222 1.222 0 0 0 -0.183 -0.15 1.306 1.306 0 0 0 -0.209 -0.113 1.232 1.232 0 0 0 -0.464 -0.092 1.222 1.222 0 0 0 -0.463 0.092 1.306 1.306 0 0 0 -0.209 0.113c-0.066 0.043 -0.127 0.094 -0.183 0.15Zm8.567 -25.709a1.222 1.222 0 0 0 -0.151 0.183q-0.067 0.099 -0.112 0.209 -0.046 0.11 -0.068 0.227a1.111 1.111 0 0 0 -0.024 0.237q0 0.12 0.024 0.236a1.194 1.194 0 0 0 0.331 0.621 1.222 1.222 0 0 0 0.394 0.264q0.109 0.046 0.227 0.068 0.117 0.024 0.236 0.024 0.121 0 0.238 -0.024a1.194 1.194 0 0 0 0.436 -0.181q0.099 -0.067 0.184 -0.151a1.222 1.222 0 0 0 0.262 -0.393q0.046 -0.111 0.068 -0.228c0.017 -0.078 0.024 -0.156 0.024 -0.237q0 -0.119 -0.024 -0.237a1.167 1.167 0 0 0 -0.068 -0.227 1.25 1.25 0 0 0 -0.112 -0.209 1.222 1.222 0 0 0 -0.771 -0.517 1.389 1.389 0 0 0 -0.238 -0.024q-0.119 0.001 -0.236 0.024a1.25 1.25 0 0 0 -0.437 0.181q-0.099 0.067 -0.183 0.152m17.996 15.657a1.167 1.167 0 0 0 -0.262 0.393c-0.031 0.074 -0.053 0.149 -0.069 0.227a1.25 1.25 0 0 0 0 0.473 1.25 1.25 0 0 0 0.181 0.436q0.067 0.1 0.151 0.185 0.084 0.084 0.183 0.151a1.211 1.211 0 0 0 0.436 0.18q0.118 0.024 0.237 0.024 0.119 0 0.237 -0.024a1.167 1.167 0 0 0 0.227 -0.068q0.111 -0.046 0.209 -0.112 0.1 -0.067 0.183 -0.151a1.167 1.167 0 0 0 0.151 -0.184q0.066 -0.099 0.112 -0.209a1.167 1.167 0 0 0 0.092 -0.463q0 -0.119 -0.023 -0.237a1.194 1.194 0 0 0 -0.069 -0.227 1.111 1.111 0 0 0 -0.112 -0.209 1.111 1.111 0 0 0 -0.151 -0.183 1.111 1.111 0 0 0 -0.183 -0.151 1.181 1.181 0 0 0 -0.436 -0.181 1.111 1.111 0 0 0 -0.237 -0.024q-0.119 0 -0.237 0.024 -0.116 0.022 -0.227 0.068a1.194 1.194 0 0 0 -0.209 0.113c-0.066 0.043 -0.127 0.094 -0.183 0.151m-36.34 19.389a1.21 1.21 0 0 0 -0.151 1.53q0.066 0.099 0.151 0.183 0.084 0.084 0.183 0.151t0.209 0.112q0.109 0.047 0.227 0.069a1.25 1.25 0 0 0 0.473 0 1.214 1.214 0 0 0 0.619 -0.332q0.084 -0.084 0.151 -0.183 0.066 -0.099 0.112 -0.209 0.045 -0.11 0.069 -0.227a1.25 1.25 0 0 0 0 -0.473 1.214 1.214 0 0 0 -0.332 -0.621 1.111 1.111 0 0 0 -0.183 -0.15 1.181 1.181 0 0 0 -0.436 -0.181 1.111 1.111 0 0 0 -0.237 -0.024q-0.119 0 -0.236 0.024a1.167 1.167 0 0 0 -0.436 0.181 1.111 1.111 0 0 0 -0.183 0.15m1.712 -19.389q0.084 0.084 0.151 0.183 0.066 0.099 0.112 0.209 0.045 0.111 0.069 0.227a1.25 1.25 0 0 1 0 0.473 1.25 1.25 0 0 1 -0.181 0.436q-0.067 0.1 -0.151 0.185a1.222 1.222 0 0 1 -0.183 0.151 1.211 1.211 0 0 1 -0.436 0.18 1.111 1.111 0 0 1 -0.237 0.024q-0.119 0 -0.236 -0.024a1.167 1.167 0 0 1 -0.227 -0.068 1.25 1.25 0 0 1 -0.209 -0.112 1.167 1.167 0 0 1 -0.183 -0.151 1.167 1.167 0 0 1 -0.151 -0.184 1.111 1.111 0 0 1 -0.112 -0.209 1.167 1.167 0 0 1 -0.092 -0.463q0 -0.119 0.023 -0.237a1.222 1.222 0 0 1 0.181 -0.436q0.066 -0.099 0.151 -0.183 0.084 -0.084 0.183 -0.151t0.209 -0.112q0.109 -0.046 0.227 -0.069a1.25 1.25 0 0 1 0.473 0q0.116 0.024 0.227 0.068 0.111 0.046 0.209 0.113c0.066 0.043 0.127 0.094 0.183 0.151m36.34 19.389q0.085 0.085 0.151 0.183 0.066 0.1 0.112 0.21a1.194 1.194 0 0 1 0.069 0.7q-0.023 0.117 -0.069 0.228 -0.045 0.11 -0.112 0.209 -0.066 0.1 -0.151 0.183a1.167 1.167 0 0 1 -0.183 0.151 1.25 1.25 0 0 1 -0.436 0.181 1.25 1.25 0 0 1 -0.473 0 1.306 1.306 0 0 1 -0.227 -0.069 1.167 1.167 0 0 1 -0.209 -0.112 1.222 1.222 0 0 1 -0.446 -0.544 1.278 1.278 0 0 1 -0.069 -0.228 1.222 1.222 0 0 1 0 -0.472q0.024 -0.117 0.069 -0.228t0.112 -0.209a1.222 1.222 0 0 1 0.544 -0.446q0.111 -0.045 0.227 -0.069a1.25 1.25 0 0 1 0.473 0 1.25 1.25 0 0 1 0.436 0.181q0.1 0.067 0.183 0.151m0 0" style="stroke:none;fill-rule:evenodd;fill:#000000;fill-opacity:1;"/></g></svg>